<svg xmlns="http://www.w3.org/2000/svg" viewBox="0 0 60 40"><rect width="60" height="40" fill="#fff"/><g transform="translate(30 20)"><path d="M0-9a9 9 0 0 1 0 18a4.5 4.5 0 0 0 0-9a4.5 4.5 0 0 1 0-9" fill="#CD2E3A"/><path d="M0 9a9 9 0 0 1 0-18a4.5 4.5 0 0 0 0 9a4.5 4.5 0 0 1 0 9" fill="#0047A0"/></g><g fill="#000"><rect x="10" y="9" width="8" height="1.8"/><rect x="10" y="12" width="8" height="1.8"/><rect x="10" y="15" width="8" height="1.8"/><rect x="42" y="23" width="8" height="1.8"/><rect x="42" y="26" width="8" height="1.8"/><rect x="42" y="29" width="8" height="1.8"/><rect x="42" y="9" width="8" height="1.8"/><rect x="42" y="15" width="8" height="1.8"/><rect x="10" y="23" width="8" height="1.8"/><rect x="10" y="29" width="8" height="1.8"/></g><rect width="60" height="40" rx="4" fill="none" stroke="#ddd"/></svg>